<svg xmlns="http://www.w3.org/2000/svg" xmlns:xlink="http://www.w3.org/1999/xlink" style="enable-background:new 0 0 1310 514" id="Layer_1" x="0" y="0" version="1.1" viewBox="0 0 1310 514" xml:space="preserve"><style type="text/css"/><g><g><path d="M263.76,248.69v-82.11h76.45c29.98,0,47.55,10.35,47.55,40.93c0,31.18-17.82,41.17-47.55,41.17H263.76z M283.03,232.2 h55.38c21.19,0,29.38-6.02,29.38-24.68c0-18.54-8.19-24.44-29.38-24.44h-55.38V232.2z"/><path d="M494.31,248.69h-15.77l-1.44-9.15c-12.52,5.54-27.45,10.35-42.86,10.35c-22.39,0-36.12-8.91-36.12-31.18 c0-24.32,18.54-32.02,45.87-32.02c19.87,0,37.2,2.05,50.32,4.09V248.69z M437.6,234.97c12.16,0,25.28-3.01,38.65-7.46v-24.2 c-10.35-1.2-23.12-2.05-34.07-2.05c-16.73,0-26.12,4.58-26.12,16.86C416.05,230.27,422.43,234.97,437.6,234.97z"/><path d="M508.75,187.9h15.77l1.2,7.83c12.52-5.06,27.57-9.39,42.98-9.39c21.91,0,34.43,8.31,34.43,29.01v33.35H585.2v-30.7 c0-10.83-6.86-16.49-22.27-16.49c-9.99,0-22.39,2.29-36.24,6.38v40.81h-17.94V187.9z"/><path d="M634.92,179.59h-17.94v-17.46h17.94V179.59z M616.98,187.9h17.94v60.8h-17.94V187.9z"/><path d="M737.49,232.44l3.73,13.12c-10.84,2.65-28.41,4.7-44.06,4.7c-33.83,0-49.48-8.91-49.48-32.02 c0-22.75,17.34-31.9,47.8-31.9c28.29,0,47.43,7.34,47.43,28.05c0,2.53-0.24,6.74-0.48,8.19h-77.05 c1.93,10.96,11.2,13.36,33.35,13.36C716.66,235.93,730.87,233.65,737.49,232.44z M665.38,212.94h59.83 c-1.2-9.87-7.95-14.33-30.34-14.33C675.49,198.61,667.06,202.22,665.38,212.94z"/><path d="M773.61,248.69h-17.94V158.4h17.94V248.69z"/><path d="M263.76,347.69v-82.11h107.87v15.29h-88.61v18.78h86.2v12.64h-86.2v20.11h88.61v15.29H263.76z"/><path d="M378.85,347.69l42.86-30.94l-42.38-29.86h25.64l29.62,20.83l29.38-20.83h25.28l-42.02,29.86l43.1,30.94h-25.64 l-30.34-21.79l-30.22,21.79H378.85z"/><path d="M498.4,369.97V286.9h15.77l1.44,9.27c12.28-5.54,27.33-10.47,42.86-10.47c22.75,0,36.12,8.91,36.12,30.94 c0,23.84-17.46,32.27-43.94,32.27c-12.16,0-24.2-1.45-34.19-3.25v24.32H498.4z M516.46,307.96v23.96 c10.59,1.2,23.84,2.41,35.15,2.41c16.25,0,25.04-4.7,25.04-17.34c0-11.56-6.14-16.37-21.43-16.37 C543.91,300.62,530.18,303.63,516.46,307.96z"/><path d="M694.76,331.44l3.73,13.12c-10.84,2.65-28.41,4.7-44.06,4.7c-33.83,0-49.48-8.91-49.48-32.02 c0-22.75,17.34-31.9,47.8-31.9c28.29,0,47.43,7.34,47.43,28.05c0,2.53-0.24,6.74-0.48,8.19h-77.05 c1.93,10.96,11.2,13.36,33.35,13.36C673.93,334.93,688.13,332.65,694.76,331.44z M622.64,311.94h59.83 c-1.2-9.87-7.95-14.33-30.34-14.33C632.75,297.61,624.33,301.22,622.64,311.94z"/><path d="M712.93,286.9h15.77l1.44,11.2c12.4-6.86,28.05-12.76,45.51-12.76v16.25c-16.61,0-29.74,2.53-44.79,8.79v37.32h-17.94 V286.9z"/><path d="M805.03,278.59h-17.94v-17.46h17.94V278.59z M787.09,286.9h17.94v60.8h-17.94V286.9z"/><path d="M907.6,331.44l3.73,13.12c-10.84,2.65-28.41,4.7-44.06,4.7c-33.83,0-49.48-8.91-49.48-32.02c0-22.75,17.34-31.9,47.8-31.9 c28.29,0,47.43,7.34,47.43,28.05c0,2.53-0.24,6.74-0.48,8.19h-77.05c1.93,10.96,11.2,13.36,33.35,13.36 C886.78,334.93,900.98,332.65,907.6,331.44z M835.49,311.94h59.83c-1.2-9.87-7.95-14.33-30.34-14.33 C845.6,297.61,837.17,301.22,835.49,311.94z"/><path d="M925.78,286.9h15.77l1.2,7.83c12.52-5.06,27.57-9.39,42.98-9.39c21.91,0,34.43,8.31,34.43,29.01v33.35h-17.94v-30.7 c0-10.83-6.86-16.49-22.27-16.49c-9.99,0-22.39,2.29-36.24,6.38v40.81h-17.94V286.9z"/><path d="M1083.85,285.33c15.17,0,29.74,2.05,40.21,4.58l-3.73,14.45c-8.43-1.81-20.59-3.73-39.01-3.73 c-23.12,0-31.78,3.73-31.78,16.49c0,12.88,8.67,16.61,31.78,16.61c18.42,0,30.58-1.93,39.01-3.73l3.73,14.57 c-10.47,2.41-24.44,4.45-40.21,4.45c-36.84,0-52.25-9.51-52.25-31.9C1031.6,294.72,1047.01,285.33,1083.85,285.33z"/><path d="M1221.34,331.44l3.73,13.12c-10.84,2.65-28.41,4.7-44.06,4.7c-33.83,0-49.48-8.91-49.48-32.02 c0-22.75,17.34-31.9,47.8-31.9c28.29,0,47.43,7.34,47.43,28.05c0,2.53-0.24,6.74-0.48,8.19h-77.05 c1.93,10.96,11.2,13.36,33.35,13.36C1200.51,334.93,1214.72,332.65,1221.34,331.44z M1149.22,311.94h59.83 c-1.2-9.87-7.95-14.33-30.34-14.33C1159.34,297.61,1150.91,301.22,1149.22,311.94z"/></g><g><path d="M154.63,347.97h-9.06v-64.53h9.06v26.91h36.04v10.58h-36.04V347.97z"/><path d="M141.08,277.42v-9.85h20.03c-2.58-6.74-4.69-14.88-4.69-23.14c0-11.97,4.56-18.84,15.94-18.84h18.32v9.85h-16.86 c-5.95,0-9.06,3.77-9.06,12.23c0,5.49,1.26,12.3,3.5,19.9h22.41v9.85H141.08z"/><path d="M181.74,169.98l7.21-2.05c1.45,5.95,2.58,15.6,2.58,24.2c0,18.58-4.89,27.18-17.59,27.18c-12.5,0-17.52-9.52-17.52-26.25 c0-15.54,4.03-26.05,15.41-26.05c1.39,0,3.7,0.13,4.5,0.26v42.32c6.02-1.06,7.34-6.15,7.34-18.32 C183.66,181.41,182.4,173.61,181.74,169.98z M171.03,209.58v-32.86c-5.42,0.66-7.87,4.36-7.87,16.66 C163.16,204.03,165.14,208.66,171.03,209.58z"/></g><path d="M224.32,167h6.69v180.97h-6.69V167z"/></g></svg>